<svg width="21" height="21" viewBox="0 0 21 21" fill="none" xmlns="http://www.w3.org/2000/svg">
<path d="M7.0542 7.58781C7.5842 8.06281 8.2862 8.35181 9.0542 8.35181H11.0542C11.7923 8.35283 12.5047 8.08069 13.0542 7.58781H7.0542ZM7.0542 7.58781C6.50474 8.08069 5.79233 8.35283 5.0542 8.35181L7.0542 7.58781ZM6.1042 2.35181V2.30181H6.0542H3.0542C2.77572 2.30181 2.50865 2.41243 2.31174 2.60934C2.11483 2.80626 2.0042 3.07333 2.0042 3.35181V5.35181C2.0042 5.63028 2.11483 5.89736 2.31174 6.09427C2.50865 6.29118 2.77572 6.40181 3.0542 6.40181H5.0542C5.33268 6.40181 5.59975 6.29118 5.79666 6.09427C5.99358 5.89736 6.1042 5.63028 6.1042 5.35181V2.35181ZM3.0642 8.30181H3.0142V8.35181V18.3168V18.3668H3.0642H5.0542H5.1042V18.3168V13.3518C5.1042 12.8346 5.30965 12.3386 5.67534 11.9729C6.04104 11.6073 6.53703 11.4018 7.0542 11.4018H9.0542C9.57137 11.4018 10.0674 11.6073 10.4331 11.9729C10.7988 12.3386 11.0042 12.8346 11.0042 13.3518V18.3168V18.3668H11.0542H17.0672H17.1172V18.3168V8.35181V8.30181H17.0672H15.0542C14.299 8.30181 13.6087 8.01765 13.0876 7.55057L13.0542 7.52065L13.0208 7.55059C12.4805 8.03522 11.7801 8.30281 11.0543 8.30181H11.0542H9.0542C8.29896 8.30181 7.60874 8.01765 7.08757 7.55057L7.05419 7.52065L7.02081 7.55059C6.48054 8.03522 5.78006 8.30281 5.05427 8.30181H5.0542H3.0642ZM1.06237 7.52893C0.76593 7.25816 0.527901 6.92947 0.363101 6.56299C0.191873 6.18222 0.103619 5.76938 0.104202 5.35188V5.35181V3.35181C0.104202 2.56942 0.415005 1.81907 0.968237 1.26584C1.52147 0.712609 2.27181 0.401807 3.0542 0.401807H17.0542C17.8366 0.401807 18.5869 0.712609 19.1402 1.26584C19.6934 1.81907 20.0042 2.56942 20.0042 3.35181V5.35181C20.0042 6.21914 19.6306 6.99984 19.0337 7.53972L19.0172 7.55461V7.57681V18.3168C19.0172 18.834 18.8118 19.33 18.4461 19.6957C18.0804 20.0614 17.5844 20.2668 17.0672 20.2668H9.4272V20.2659L9.41791 20.2677C9.298 20.2904 9.17623 20.3018 9.05419 20.3018H7.0542C6.93218 20.3018 6.81041 20.2904 6.69049 20.2677L6.69066 20.2668H6.6812H3.0652C2.54803 20.2668 2.05204 20.0614 1.68634 19.6957C1.32065 19.33 1.1152 18.834 1.1152 18.3168V7.59681V7.47611L1.06237 7.52893ZM9.1042 13.3518V13.3018H9.0542H7.0542H7.0042V13.3518V18.3168V18.3668H7.0542H9.0542V18.3178H9.1042V18.3168V18.2668V13.3518ZM12.1042 2.35181V2.30181H12.0542H8.0542H8.0042V2.35181V5.35181C8.0042 5.63028 8.11483 5.89736 8.31174 6.09427C8.50865 6.29118 8.77572 6.40181 9.0542 6.40181H11.0542C11.3327 6.40181 11.5998 6.29118 11.7967 6.09427C11.9936 5.89736 12.1042 5.63028 12.1042 5.35181V2.35181ZM14.0542 2.30181H14.0042V2.35181V5.35181C14.0042 5.63028 14.1148 5.89736 14.3117 6.09427C14.5087 6.29118 14.7757 6.40181 15.0542 6.40181H17.0542C17.3327 6.40181 17.5998 6.29118 17.7967 6.09427C17.9936 5.89736 18.1042 5.63028 18.1042 5.35181V3.35181C18.1042 3.07333 17.9936 2.80626 17.7967 2.60934C17.5998 2.41243 17.3327 2.30181 17.0542 2.30181H14.0542ZM14.0542 11.4018H15.0542C15.3062 11.4018 15.5478 11.5019 15.726 11.6801C15.9041 11.8582 16.0042 12.0999 16.0042 12.3518V15.3518C16.0042 15.6038 15.9041 15.8454 15.726 16.0236C15.5478 16.2017 15.3062 16.3018 15.0542 16.3018H14.0542C13.8022 16.3018 13.5606 16.2017 13.3825 16.0236C13.2043 15.8454 13.1042 15.6038 13.1042 15.3518V12.3518C13.1042 12.0999 13.2043 11.8582 13.3825 11.6801C13.5606 11.5019 13.8022 11.4018 14.0542 11.4018Z" fill="#181725" stroke="white" stroke-width="0.1"/>
</svg>
