<svg width="21" height="21" viewBox="0 0 21 21" fill="none" xmlns="http://www.w3.org/2000/svg">
<path d="M7.16101 7.75407C7.69101 8.22907 8.39301 8.51807 9.16101 8.51807H11.161C11.8991 8.51909 12.6116 8.24695 13.161 7.75407H7.16101ZM7.16101 7.75407C6.61155 8.24695 5.89915 8.51909 5.16101 8.51807L7.16101 7.75407ZM6.21101 2.51807V2.46807H6.16101H3.16101C2.88254 2.46807 2.61546 2.57869 2.41855 2.7756C2.22164 2.97252 2.11101 3.23959 2.11101 3.51807V5.51807C2.11101 5.79654 2.22164 6.06362 2.41855 6.26053C2.61546 6.45744 2.88254 6.56807 3.16101 6.56807H5.16101C5.43949 6.56807 5.70656 6.45744 5.90348 6.26053C6.10039 6.06362 6.21101 5.79654 6.21101 5.51807V2.51807ZM3.17101 8.46807H3.12101V8.51807V18.4831V18.5331H3.17101H5.16101H5.21101V18.4831V13.5181C5.21101 13.0009 5.41646 12.5049 5.78216 12.1392C6.14785 11.7735 6.64384 11.5681 7.16101 11.5681H9.16101C9.67819 11.5681 10.1742 11.7735 10.5399 12.1392C10.9056 12.5049 11.111 13.0009 11.111 13.5181V18.4831V18.5331H11.161H17.174H17.224V18.4831V8.51807V8.46807H17.174H15.161C14.4058 8.46807 13.7155 8.18391 13.1944 7.71683L13.161 7.68691L13.1276 7.71685C12.5874 8.20148 11.8869 8.46907 11.1611 8.46807H11.161H9.16101C8.40577 8.46807 7.71555 8.18391 7.19438 7.71683L7.161 7.68691L7.12763 7.71685C6.58736 8.20148 5.88687 8.46907 5.16108 8.46807H5.16101H3.17101ZM1.16918 7.69519C0.872742 7.42442 0.634712 7.09573 0.469913 6.72925C0.298685 6.34848 0.210431 5.93564 0.211014 5.51814V5.51807V3.51807C0.211014 2.73568 0.521816 1.98533 1.07505 1.4321C1.62828 0.878869 2.37862 0.568066 3.16101 0.568066H17.161C17.9434 0.568066 18.6937 0.878869 19.247 1.4321C19.8002 1.98533 20.111 2.73568 20.111 3.51807V5.51807C20.111 6.3854 19.7374 7.1661 19.1405 7.70598L19.124 7.72087V7.74307V18.4831C19.124 19.0002 18.9186 19.4962 18.5529 19.8619C18.1872 20.2276 17.6912 20.4331 17.174 20.4331H9.53401V20.4322L9.52472 20.4339C9.40481 20.4566 9.28304 20.468 9.161 20.4681H7.16101C7.03899 20.468 6.91722 20.4566 6.7973 20.4339L6.79747 20.4331H6.78801H3.17201C2.65484 20.4331 2.15885 20.2276 1.79316 19.8619C1.42746 19.4962 1.22201 19.0002 1.22201 18.4831V7.76307V7.64237L1.16918 7.69519ZM9.21101 13.5181V13.4681H9.16101H7.16101H7.11101V13.5181V18.4831V18.5331H7.16101H9.16101V18.4841H9.21101V18.4831V18.4331V13.5181ZM12.211 2.51807V2.46807H12.161H8.16101H8.11101V2.51807V5.51807C8.11101 5.79654 8.22164 6.06362 8.41855 6.26053C8.61547 6.45744 8.88254 6.56807 9.16101 6.56807H11.161C11.4395 6.56807 11.7066 6.45744 11.9035 6.26053C12.1004 6.06362 12.211 5.79654 12.211 5.51807V2.51807ZM14.161 2.46807H14.111V2.51807V5.51807C14.111 5.79654 14.2216 6.06362 14.4186 6.26053C14.6155 6.45744 14.8825 6.56807 15.161 6.56807H17.161C17.4395 6.56807 17.7066 6.45744 17.9035 6.26053C18.1004 6.06362 18.211 5.79654 18.211 5.51807V3.51807C18.211 3.23959 18.1004 2.97252 17.9035 2.7756C17.7066 2.57869 17.4395 2.46807 17.161 2.46807H14.161ZM14.161 11.5681H15.161C15.413 11.5681 15.6546 11.6682 15.8328 11.8463C16.0109 12.0245 16.111 12.2661 16.111 12.5181V15.5181C16.111 15.77 16.0109 16.0117 15.8328 16.1898C15.6546 16.368 15.413 16.4681 15.161 16.4681H14.161C13.9091 16.4681 13.6674 16.368 13.4893 16.1898C13.3111 16.0117 13.211 15.77 13.211 15.5181V12.5181C13.211 12.2661 13.3111 12.0245 13.4893 11.8463C13.6674 11.6682 13.9091 11.5681 14.161 11.5681Z" fill="#030303" stroke="white" stroke-width="0.1"/>
</svg>
